<svg width="38" height="38" viewBox="0 0 38 38" fill="none" xmlns="http://www.w3.org/2000/svg">
<path d="M14.2503 34.8307H23.7503C31.667 34.8307 34.8337 31.6641 34.8337 23.7474V14.2474C34.8337 6.33073 31.667 3.16406 23.7503 3.16406H14.2503C6.33366 3.16406 3.16699 6.33073 3.16699 14.2474V23.7474C3.16699 31.6641 6.33366 34.8307 14.2503 34.8307Z" stroke="#292D32" stroke-width="1.5" stroke-linecap="round" stroke-linejoin="round"/>
<path d="M18.9997 24.5443C22.0603 24.5443 24.5413 22.0632 24.5413 19.0026C24.5413 15.942 22.0603 13.4609 18.9997 13.4609C15.9391 13.4609 13.458 15.942 13.458 19.0026C13.458 22.0632 15.9391 24.5443 18.9997 24.5443Z" stroke="#292D32" stroke-width="1.5" stroke-linecap="round" stroke-linejoin="round"/>
<path d="M27.9242 11.0807H27.9425" stroke="#292D32" stroke-width="2" stroke-linecap="round" stroke-linejoin="round"/>
</svg>
