<svg width="22" height="22" viewBox="0 0 22 22" fill="none" xmlns="http://www.w3.org/2000/svg">
<path d="M15.5835 1.83594H6.41683C3.88683 1.83594 1.8335 3.8801 1.8335 6.40094V11.8826V12.7993C1.8335 15.3201 3.88683 17.3643 6.41683 17.3643H7.79183C8.03933 17.3643 8.36933 17.5293 8.52516 17.7309L9.90016 19.5551C10.5052 20.3618 11.4952 20.3618 12.1002 19.5551L13.4752 17.7309C13.6493 17.5018 13.9243 17.3643 14.2085 17.3643H15.5835C18.1135 17.3643 20.1668 15.3201 20.1668 12.7993V6.40094C20.1668 3.8801 18.1135 1.83594 15.5835 1.83594ZM7.3335 11.0026C6.82016 11.0026 6.41683 10.5901 6.41683 10.0859C6.41683 9.58177 6.82933 9.16927 7.3335 9.16927C7.83766 9.16927 8.25016 9.58177 8.25016 10.0859C8.25016 10.5901 7.84683 11.0026 7.3335 11.0026ZM11.0002 11.0026C10.4868 11.0026 10.0835 10.5901 10.0835 10.0859C10.0835 9.58177 10.496 9.16927 11.0002 9.16927C11.5043 9.16927 11.9168 9.58177 11.9168 10.0859C11.9168 10.5901 11.5135 11.0026 11.0002 11.0026ZM14.6668 11.0026C14.1535 11.0026 13.7502 10.5901 13.7502 10.0859C13.7502 9.58177 14.1627 9.16927 14.6668 9.16927C15.171 9.16927 15.5835 9.58177 15.5835 10.0859C15.5835 10.5901 15.1802 11.0026 14.6668 11.0026Z" fill="#4E60FF"/>
</svg>
