<svg width="22" height="22" viewBox="0 0 22 22" fill="none" xmlns="http://www.w3.org/2000/svg">
<path d="M20.1667 13.75C20.1667 17.2975 17.2975 20.1667 13.75 20.1667L14.7125 18.5625" stroke="#292D32" stroke-width="1.5" stroke-linecap="round" stroke-linejoin="round"/>
<path d="M1.8335 8.2526C1.8335 4.7051 4.70266 1.83594 8.25016 1.83594L7.28766 3.4401" stroke="#292D32" stroke-width="1.5" stroke-linecap="round" stroke-linejoin="round"/>
<path d="M12.5581 4.07812L16.2064 6.18645L19.8181 4.0873" stroke="#292D32" stroke-width="1.5" stroke-linecap="round" stroke-linejoin="round"/>
<path d="M16.2065 9.9197V6.17969" stroke="#292D32" stroke-width="1.5" stroke-linecap="round" stroke-linejoin="round"/>
<path d="M15.3448 2.02844L13.1448 3.24756C12.6498 3.52256 12.2373 4.21922 12.2373 4.78756V7.11593C12.2373 7.68426 12.6406 8.38092 13.1448 8.65592L15.3448 9.8751C15.8123 10.1409 16.5823 10.1409 17.059 9.8751L19.259 8.65592C19.754 8.38092 20.1665 7.68426 20.1665 7.11593V4.78756C20.1665 4.21922 19.7631 3.52256 19.259 3.24756L17.059 2.02844C16.5915 1.77177 15.8215 1.77177 15.3448 2.02844Z" stroke="#292D32" stroke-width="1.5" stroke-linecap="round" stroke-linejoin="round"/>
<path d="M2.1543 14.1562L5.79346 16.2646L9.4143 14.1654" stroke="#292D32" stroke-width="1.5" stroke-linecap="round" stroke-linejoin="round"/>
<path d="M5.79346 19.9978V16.2578" stroke="#292D32" stroke-width="1.5" stroke-linecap="round" stroke-linejoin="round"/>
<path d="M4.941 12.1066L2.741 13.3257C2.246 13.6007 1.8335 14.2973 1.8335 14.8657V17.1941C1.8335 17.7624 2.23683 18.459 2.741 18.734L4.941 19.9532C5.4085 20.2191 6.17849 20.2191 6.65516 19.9532L8.85517 18.734C9.35017 18.459 9.76266 17.7624 9.76266 17.1941V14.8657C9.76266 14.2973 9.35933 13.6007 8.85517 13.3257L6.65516 12.1066C6.17849 11.8499 5.4085 11.8499 4.941 12.1066Z" stroke="#292D32" stroke-width="1.5" stroke-linecap="round" stroke-linejoin="round"/>
</svg>
