<svg width="22" height="22" viewBox="0 0 22 22" fill="none" xmlns="http://www.w3.org/2000/svg">
<path d="M13.75 20.8542C13.5025 20.8542 13.2733 20.7167 13.1542 20.5058C13.035 20.295 13.035 20.0292 13.1633 19.8183L14.1258 18.2142C14.3183 17.8842 14.74 17.7833 15.07 17.9758C15.4 18.1683 15.5008 18.59 15.3083 18.92L15.0608 19.3325C17.5908 18.7367 19.4883 16.4633 19.4883 13.75C19.4883 13.3742 19.8 13.0625 20.1758 13.0625C20.5517 13.0625 20.8633 13.3742 20.8633 13.75C20.8542 17.6642 17.6642 20.8542 13.75 20.8542Z" fill="#4E60FF"/>
<path d="M1.8335 8.9401C1.45766 8.9401 1.146 8.62844 1.146 8.2526C1.146 4.33844 4.336 1.14844 8.25016 1.14844C8.49766 1.14844 8.72683 1.28594 8.846 1.49677C8.96516 1.7076 8.96516 1.97344 8.83683 2.18427L7.87433 3.7976C7.68183 4.11844 7.26016 4.22844 6.93016 4.02677C6.60933 3.83427 6.49933 3.4126 6.701 3.0826L6.9485 2.6701C4.40933 3.26594 2.521 5.53927 2.521 8.2526C2.521 8.62844 2.20933 8.9401 1.8335 8.9401Z" fill="#4E60FF"/>
<path d="M9.78088 12.6964L6.90255 11.1472C6.60005 10.9822 6.23338 10.9822 5.93088 11.1472L3.05255 12.6964C2.84171 12.8064 2.71338 13.0355 2.71338 13.283C2.71338 13.5305 2.84171 13.7597 3.05255 13.8697L5.93088 15.4189C6.08671 15.5014 6.25171 15.538 6.41671 15.538C6.58171 15.538 6.74671 15.5014 6.90255 15.4189L9.78088 13.8697C9.99171 13.7597 10.12 13.5305 10.12 13.283C10.12 13.0355 9.98255 12.8155 9.78088 12.6964Z" fill="#4E60FF"/>
<path d="M5.45433 15.9623L2.77766 14.624C2.576 14.5232 2.33766 14.5323 2.136 14.6515C1.95266 14.7707 1.8335 14.9815 1.8335 15.2107V17.7407C1.8335 18.1807 2.07183 18.5748 2.466 18.7673L5.14266 20.1057C5.23433 20.1423 5.33516 20.1698 5.436 20.1698C5.55516 20.1698 5.67433 20.1332 5.78433 20.069C5.97683 19.9498 6.096 19.739 6.096 19.5098V16.9798C6.096 16.549 5.8485 16.1548 5.45433 15.9623Z" fill="#4E60FF"/>
<path d="M10.6881 14.6515C10.4956 14.5323 10.2573 14.5232 10.0465 14.624L7.3698 15.9623C6.97564 16.1548 6.7373 16.549 6.7373 16.989V19.519C6.7373 19.7482 6.85647 19.959 7.04897 20.0782C7.15897 20.1332 7.27814 20.1698 7.3973 20.1698C7.49814 20.1698 7.59897 20.1423 7.69064 20.0965L10.3673 18.7582C10.7615 18.5657 10.9998 18.1715 10.9998 17.7315V15.2015C10.9998 14.9815 10.8806 14.7707 10.6881 14.6515Z" fill="#4E60FF"/>
<path d="M18.9474 3.50885L16.069 1.95969C15.7665 1.79469 15.3999 1.79469 15.0974 1.95969L12.219 3.50885C12.0082 3.61885 11.8799 3.84802 11.8799 4.09552C11.8799 4.34302 12.0082 4.57219 12.219 4.68219L15.0974 6.23135C15.2532 6.31385 15.4182 6.35052 15.5832 6.35052C15.7482 6.35052 15.9132 6.31385 16.069 6.23135L18.9474 4.68219C19.1582 4.57219 19.2865 4.34302 19.2865 4.09552C19.2865 3.83885 19.149 3.61885 18.9474 3.50885Z" fill="#4E60FF"/>
<path d="M14.6208 6.76703L11.9442 5.4287C11.7425 5.32786 11.5042 5.33703 11.3025 5.4562C11.1192 5.57536 11 5.7862 11 6.01536V8.54536C11 8.98536 11.2383 9.37953 11.6325 9.57203L14.3092 10.9104C14.4008 10.9562 14.5017 10.9837 14.6025 10.9837C14.7217 10.9837 14.8408 10.947 14.9508 10.8829C15.1433 10.7637 15.2625 10.5529 15.2625 10.3237V7.7937C15.2625 7.3537 15.015 6.95953 14.6208 6.76703Z" fill="#4E60FF"/>
<path d="M19.8551 5.4562C19.6626 5.33703 19.4243 5.32786 19.2135 5.4287L16.5368 6.76703C16.1426 6.95953 15.9043 7.3537 15.9043 7.7937V10.3237C15.9043 10.5529 16.0235 10.7637 16.216 10.8829C16.326 10.947 16.4451 10.9837 16.5643 10.9837C16.6651 10.9837 16.766 10.9562 16.8576 10.9104L19.5343 9.57203C19.9285 9.37036 20.1668 8.9762 20.1668 8.54536V6.01536C20.1668 5.7862 20.0476 5.57536 19.8551 5.4562Z" fill="#4E60FF"/>
</svg>
