<svg width="22" height="22" viewBox="0 0 22 22" fill="none" xmlns="http://www.w3.org/2000/svg">
<path d="M2.90576 6.82031L10.9999 11.5045L19.0391 6.84778" stroke="#292D32" stroke-width="1.5" stroke-linecap="round" stroke-linejoin="round"/>
<path d="M11 19.8064V11.4922" stroke="#292D32" stroke-width="1.5" stroke-linecap="round" stroke-linejoin="round"/>
<path d="M9.10256 2.27594L4.20757 4.99847C3.0984 5.61263 2.19092 7.15262 2.19092 8.41762V13.5968C2.19092 14.8618 3.0984 16.4018 4.20757 17.016L9.10256 19.7385C10.1476 20.316 11.8617 20.316 12.9067 19.7385L17.8017 17.016C18.9109 16.4018 19.8184 14.8618 19.8184 13.5968V8.41762C19.8184 7.15262 18.9109 5.61263 17.8017 4.99847L12.9067 2.27594C11.8526 1.68927 10.1476 1.68927 9.10256 2.27594Z" stroke="#292D32" stroke-width="1.5" stroke-linecap="round" stroke-linejoin="round"/>
<path d="M15.5834 12.1362V8.78118L6.88428 3.75781" stroke="#292D32" stroke-width="1.5" stroke-linecap="round" stroke-linejoin="round"/>
</svg>
