<svg width="22" height="22" viewBox="0 0 22 22" fill="none" xmlns="http://www.w3.org/2000/svg">
<path d="M18.4252 6.36427C18.4252 6.85927 18.1594 7.30844 17.7377 7.5376L16.1427 8.39927L14.786 9.12344L11.9719 10.6451C11.6694 10.8101 11.3394 10.8926 11.0002 10.8926C10.661 10.8926 10.331 10.8101 10.0285 10.6451L4.2627 7.5376C3.84103 7.30844 3.5752 6.85927 3.5752 6.36427C3.5752 5.86927 3.84103 5.4201 4.2627 5.19094L6.06853 4.21927L7.50769 3.4401L10.0285 2.08344C10.6335 1.75344 11.3669 1.75344 11.9719 2.08344L17.7377 5.19094C18.1594 5.4201 18.4252 5.86927 18.4252 6.36427Z" fill="#4E60FF"/>
<path d="M9.07483 11.7253L3.71233 9.04861C3.29983 8.83777 2.82316 8.86527 2.429 9.10361C2.03483 9.34194 1.80566 9.76361 1.80566 10.2219V15.2911C1.80566 16.1711 2.2915 16.9594 3.07983 17.3536L8.44233 20.0303C8.62566 20.1219 8.82733 20.1678 9.029 20.1678C9.26733 20.1678 9.50566 20.1036 9.7165 19.9661C10.1107 19.7278 10.3398 19.3061 10.3398 18.8478V13.7786C10.349 12.9078 9.86316 12.1194 9.07483 11.7253Z" fill="#4E60FF"/>
<path d="M20.1942 10.2172V15.2864C20.1942 16.1572 19.7084 16.9456 18.92 17.3397L13.5575 20.0256C13.3742 20.1172 13.1725 20.1631 12.9709 20.1631C12.7325 20.1631 12.4942 20.0989 12.2742 19.9614C11.8892 19.7231 11.6509 19.3014 11.6509 18.8431V13.7831C11.6509 12.9031 12.1367 12.1147 12.925 11.7206L14.8959 10.7397L16.2709 10.0522L18.2875 9.04391C18.7 8.83308 19.1767 8.85141 19.5709 9.09891C19.9559 9.33725 20.1942 9.75891 20.1942 10.2172Z" fill="#4E60FF"/>
<path d="M16.1425 8.39667L14.7859 9.12083L6.06836 4.21667L7.50753 3.4375L15.9225 8.18583C16.0142 8.24083 16.0875 8.31417 16.1425 8.39667Z" fill="#4E60FF"/>
<path d="M16.271 10.0547V12.1355C16.271 12.5114 15.9593 12.823 15.5835 12.823C15.2077 12.823 14.896 12.5114 14.896 12.1355V10.7422L16.271 10.0547Z" fill="#4E60FF"/>
</svg>
