<svg width="22" height="22" viewBox="0 0 22 22" fill="none" xmlns="http://www.w3.org/2000/svg">
<path d="M2.75928 10.2812V14.3971C2.75928 18.5129 4.40928 20.1629 8.52511 20.1629H13.4659C17.5818 20.1629 19.2318 18.5129 19.2318 14.3971V10.2812" stroke="#292D32" stroke-width="1.5" stroke-linecap="round" stroke-linejoin="round"/>
<path d="M11.0001 11.0026C12.6776 11.0026 13.9151 9.63677 13.7501 7.95927L13.1451 1.83594H8.86428L8.25011 7.95927C8.08511 9.63677 9.32261 11.0026 11.0001 11.0026Z" stroke="#292D32" stroke-width="1.5" stroke-linecap="round" stroke-linejoin="round"/>
<path d="M16.7842 11.0026C18.6359 11.0026 19.9926 9.49927 19.8092 7.65677L19.5526 5.13594C19.2226 2.7526 18.3059 1.83594 15.9042 1.83594H13.1084L13.7501 8.26177C13.9059 9.77427 15.2717 11.0026 16.7842 11.0026Z" stroke="#292D32" stroke-width="1.5" stroke-linecap="round" stroke-linejoin="round"/>
<path d="M5.17001 11.0026C6.68251 11.0026 8.04835 9.77427 8.19501 8.26177L8.39668 6.23594L8.83668 1.83594H6.04085C3.63918 1.83594 2.72251 2.7526 2.39251 5.13594L2.14501 7.65677C1.96168 9.49927 3.31835 11.0026 5.17001 11.0026Z" stroke="#292D32" stroke-width="1.5" stroke-linecap="round" stroke-linejoin="round"/>
<path d="M11.0002 15.5859C9.46933 15.5859 8.7085 16.3468 8.7085 17.8776V20.1693H13.2918V17.8776C13.2918 16.3468 12.531 15.5859 11.0002 15.5859Z" stroke="#292D32" stroke-width="1.5" stroke-linecap="round" stroke-linejoin="round"/>
</svg>
